<svg viewBox="0 0 1080 1080" fill="none" xmlns="http://www.w3.org/2000/svg">        <defs>    <filter id="filter" x="-20%" y="-20%" width="140%" height="140%" filterUnits="objectBoundingBox" primitiveUnits="userSpaceOnUse" color-interpolation-filters="linearRGB">      <feMorphology operator="dilate" radius="20 20" in="SourceAlpha" result="morphology"/>      <feFlood flood-color="#ffffff" flood-opacity="1" result="flood"/>      <feComposite in="flood" in2="morphology" operator="in" result="composite"/>      <feMerge result="merge">            <feMergeNode in="composite" result="mergeNode"/>        <feMergeNode in="SourceGraphic" result="mergeNode1"/>        </feMerge>    </filter>  </defs>        <g id="notion-avatar" filter="url(#filter)">          <g id="notion-avatar-face" fill="#ffffff">            <!-- Generator: Sketch 63.1 (92452) - https://sketch.com -->    <title>Face/ 13</title>    <desc>Created with Sketch.</desc>    <g id="Face/-13" stroke="none" stroke-width="1" fill-rule="evenodd" stroke-linecap="round" stroke-linejoin="round">        <path d="M532,379 C664.54834,379 772,486.45166 772,619 C772,642.160109 793.234546,666.244677 787.453024,688.979248 C773.583554,743.517917 772,919 608,919 C448.628533,919 373.476049,816.010833 320.189513,718.584987 C317.498129,718.859681 314.765451,719 312,719 C267.81722,719 232,683.18278 232,639 C232,599.134956 261.158843,566.080325 299.312086,560.00055 C325.599297,455.979213 419.809919,379 532,379 Z M295.858895,624.545187 L304.141105,655.454813" id="Path" stroke="#000000" stroke-width="24"/>    </g>      </g><g id="notion-avatar-nose">        <g id="Nose/ 13"><path id="Path" fill-rule="evenodd" clip-rule="evenodd" d="M644 560C644 560 665.892 613.522 673 623C676 627 693.906 641.256 692.774 653.58C690.065 683.076 644 684.359 644 684.359C644 684.359 700 689.489 700 653.58C700 637.222 687 632 674 620C666.959 613.5 644 560 644 560Z" fill="black" stroke="black" stroke-width="6" stroke-linecap="round" stroke-linejoin="round"/></g>      </g><g id="notion-avatar-mouth">        <g id="Mouth/ 14"><g id="Group"><path id="Path" fill-rule="evenodd" clip-rule="evenodd" d="M555.87 801.555C536.147 789.209 521.396 768.019 521.396 768.019C521.396 768.019 569 757.637 609 757.319C649 757 696.604 768.019 696.604 768.019C696.604 768.019 681.852 789.209 662.129 801.555C653.101 807.207 625 810 609.443 810C593.886 810 564.806 807.15 555.87 801.555Z" stroke="black" stroke-width="16" stroke-linecap="round" stroke-linejoin="round"/><path id="Path_2" d="M569.322 801C569.322 801 589.161 793 609 793C628.838 793 648.677 801 648.677 801" stroke="black" stroke-width="8" stroke-linecap="round" stroke-linejoin="round"/></g></g>      </g><g id="notion-avatar-eyes">            <title>Eyes/ 2</title>    <g id="Eyes/-2" stroke="none" stroke-width="1" fill="none" fill-rule="evenodd">        <path d="M570,516 C587.673112,516 602,530.326888 602,548 C602,565.673112 587.673112,580 570,580 C552.326888,580 538,565.673112 538,548 C538,530.326888 552.326888,516 570,516 Z M708,516 C725.673112,516 740,530.326888 740,548 C740,565.673112 725.673112,580 708,580 C690.326888,580 676,565.673112 676,548 C676,530.326888 690.326888,516 708,516 Z" id="Combined-Shape" fill="#000000"/>    </g>      </g><g id="notion-avatar-eyebrows">        <g id="Eyebrows/ 12"><g id="Group"><path id="Path" fill-rule="evenodd" clip-rule="evenodd" d="M681 505.316C681 505.316 698.641 492.863 706.392 490.578C714.144 488.294 738 489.316 738 489.316L755 494.913C755 494.913 730.25 494.897 716.549 497.08C702.848 499.263 681 505.316 681 505.316Z" fill="black" stroke="black" stroke-width="8" stroke-linecap="round" stroke-linejoin="round"/><path id="Path_2" fill-rule="evenodd" clip-rule="evenodd" d="M597 505.316C597 505.316 579.359 492.863 571.608 490.578C563.856 488.294 540 489.316 540 489.316L523 494.913C523 494.913 547.75 494.897 561.451 497.08C575.152 499.263 597 505.316 597 505.316Z" fill="black" stroke="black" stroke-width="8" stroke-linecap="round" stroke-linejoin="round"/></g></g>      </g><g id="notion-avatar-glasses">            <title>Glasses/ 4</title>    <g id="Glasses/-4" stroke="none" stroke-width="1" fill="none" fill-rule="evenodd" stroke-linecap="round" stroke-linejoin="round">        <g id="Group" transform="translate(289.000000, 479.000000)" fill="#000000" stroke="#000000" stroke-width="4">            <path d="M229.149255,4.2334278 C247.672154,8.12981325 283.261021,21.6236388 324.690343,35.0615291 L325.464481,35.3078466 C331.11768,37.0729902 339.032765,38.8353007 349.209737,40.594778 L349.209737,57.984989 C344.161954,60.5093754 341.061801,62.8807678 339.909277,65.0991662 C325.535839,92.7654109 298.479956,110.946086 257.050634,101.460516 C200.767297,88.5740028 181.801459,20.8331746 180.110466,9.76667675 C178.419474,-1.29982114 196.205221,-2.69651627 229.149255,4.2334278 Z M519.889534,9.76667675 C518.198541,20.8331746 499.232703,88.5740028 442.949366,101.460516 C401.520044,110.946086 374.464161,92.7654109 360.090723,65.0991662 C358.969348,62.9407245 356.004199,60.637447 351.195275,58.1893337 L350.790263,57.984989 L350.790263,40.594778 L352.195626,40.3492512 C362.16219,38.5895103 369.866867,36.8269363 375.309657,35.0615291 L377.788318,34.2552658 C418.155707,21.0877247 452.698304,8.05188555 470.850745,4.2334278 L472.809163,3.82763387 C504.498419,-2.63678054 521.546707,-1.07849118 519.889534,9.76667675 Z M213.93032,27.1568877 C197.020393,46.9184911 229.149255,89.6035544 261.278116,97.5081958 C293.406978,105.412837 334.836299,80.9084489 327.226832,57.984989 C319.617364,35.0615291 239.295211,8.97621262 213.93032,27.1568877 Z M486.06968,27.1568877 C460.704789,8.97621262 380.382636,35.0615291 372.773168,57.984989 C365.163701,80.9084489 406.593022,105.412837 438.721884,97.5081958 C470.850745,89.6035544 502.979607,46.9184911 486.06968,27.1568877 Z" id="Combined-Shape"/>            <polygon id="Path" points="199 30 4 62 0 71 199 51"/>        </g>    </g>      </g><g id="notion-avatar-hair">            <title>Hairstyle/ 9</title>    <g id="Hairstyle/-9" stroke="none" stroke-width="1" fill="none" fill-rule="evenodd" stroke-linecap="round" stroke-linejoin="round">        <path d="M600.328004,173.378628 C706.51335,164.088614 796.476165,200.935719 801.265577,255.678942 C803.695286,283.450641 783.737843,310.49297 749.618561,331.611505 C765.063752,338.699548 774.521929,348.01487 775.46916,358.841774 C776.714595,373.077161 763.016568,387.294038 739.738901,398.89906 L740.480755,402.50703 C740.650616,403.32637 740.823745,404.157384 741,405 C746.333333,406.333333 749,411.666667 749,421 C749,430.333333 737,447 713,471 C701.666667,455.666667 690,445.333333 678,440 C666.920655,435.075847 654.532414,432.679571 640.835277,432.811173 C637.222979,442.406663 631.069509,450.272246 622.5,455.219854 C608.589242,463.251234 591.202794,461.924641 575.013121,453.322279 C570.690288,458.087969 565.680763,462.179157 560,465.458947 C538.447788,477.902122 511.612082,476.138657 486.418588,463.265159 L485.395785,464.617496 C480.437333,471.120347 474.397833,478.222483 465,486 C445.666667,502 416.333333,512 377,516 L391,672 L371,672 L325,562 L289,568 C273.634723,510.922397 239,431 256,379 C266.31189,347.457747 308.818577,301.919892 356,277 C356.84754,276.552353 357.701097,276.115198 358.559964,275.688267 C352.18227,272.103338 343.995473,268.20694 334,264 C351.648204,258 368.981537,255 386,255 C397.257459,255 408.50684,256.312688 419.748142,258.938063 L421.437432,258.728011 C421.992551,258.660372 422.539594,258.595072 423.078261,258.531995 C444.228158,216.299002 514.42929,180.893791 600.328004,173.378628 Z" id="Path" stroke="#000000" stroke-width="12" fill="#000000"/>    </g>      </g><g id="notion-avatar-accessories">            <title>Accessories/ 0</title>    <g id="Accessories/-0" stroke="none" stroke-width="1" fill="none" fill-rule="evenodd"/>      </g><g id="notion-avatar-details">            <title>Details/ 0</title>    <g id="Details/-0" stroke="none" stroke-width="1" fill="none" fill-rule="evenodd"/>      </g><g id="notion-avatar-beard">            <title>Beard/ 0</title>    <g id="Beard/-0" stroke="none" stroke-width="1" fill="none" fill-rule="evenodd"/>      </g>        </g>        </svg>